# xmcd
#
# Track frame offsets:
#	150
#	17153
#	29465
#	40735
#	57870
#	74455
#	89343
#	109993
#	120478
#	136748
#	155488
#	172260
#	186710
#
# Disc length: 2755 seconds
#
# Revision: 2
# Processed by: cddbd v1.4PL0 Copyright (c) Steve Scherf et al.
# Submitted via: audiograbber 1.81.03
#
DISCID=b90ac10d
DTITLE=Various Artist - Rockin' The Crossroads (Austin, Texas)
DYEAR=1994
DGENRE=Blues
TTITLE0=Luther Tucker - You Got What You Wanted
TTITLE1=Doyle Bramhall - Too Sorry
TTITLE2=Sue Foley - Open Up Your Eyes
TTITLE3=Lewis Cowdrey - Itchy And Scratchy
TTITLE4=Kim Wilson - Tigerman
TTITLE5=Candye Kane - Don't Blame It On Me
TTITLE6=Snooky Pryor - Bury You In A Paper Sack
TTITLE7=Sam McGee - Railroad Blues
TTITLE8=David Halley - It's Just As Well
TTITLE9=Troy Campbell - Downtown
TTITLE10=Stephen Bruton - This Train Is Gone
TTITLE11=Pat McLaughlin - Better You Get Ready
TTITLE12=Glen Clark - Old Enough To Know Better
EXTD=
EXTT0=
EXTT1=
EXTT2=
EXTT3=
EXTT4=
EXTT5=
EXTT6=
EXTT7=
EXTT8=
EXTT9=
EXTT10=
EXTT11=
EXTT12=
PLAYORDER=
